<?xml version="1.0" standalone="no"?>
<!DOCTYPE svg PUBLIC "-//W3C//DTD SVG 20010904//EN"
 "http://www.w3.org/TR/2001/REC-SVG-20010904/DTD/svg10.dtd">
<svg version="1.0" xmlns="http://www.w3.org/2000/svg"
 width="600.000000pt" height="600.000000pt" viewBox="0 0 600.000000 600.000000"
 preserveAspectRatio="xMidYMid meet">
<metadata>
Created by potrace 1.14, written by Peter Selinger 2001-2017
</metadata>
<g transform="translate(0.000000,600.000000) scale(0.100000,-0.100000)"
fill="#000000" stroke="none">
<path d="M2782 5262 c-26 -4 -84 -57 -90 -81 -6 -29 -2 -75 10 -88 23 -28 45
-9 26 22 -17 28 20 114 43 99 5 -3 9 -1 9 4 0 13 63 7 68 -7 2 -6 8 -9 13 -5
8 5 13 -9 10 -28 0 -5 4 -8 10 -8 14 0 4 -61 -13 -71 -7 -5 -8 -9 -3 -9 6 0
-11 -10 -37 -22 -51 -22 -54 -38 -8 -38 17 0 39 10 53 24 14 14 27 23 29 20 3
-2 5 2 5 9 1 6 6 26 11 43 5 17 6 37 2 45 -5 7 -6 17 -4 21 3 5 -2 11 -10 14
-9 3 -13 10 -10 15 3 5 -2 9 -11 9 -10 0 -13 5 -9 13 4 6 4 9 -1 5 -4 -4 -13
-4 -19 1 -15 12 -47 17 -74 13z"/>
<path d="M4687 5053 c-72 -80 -86 -98 -84 -112 8 -51 51 -55 93 -8 77 84 91
118 60 139 -21 14 -45 8 -69 -19z"/>
<path d="M788 4883 c-15 -18 -21 -213 -7 -213 5 0 9 -7 9 -15 0 -10 7 -14 23
-11 12 3 26 5 30 5 5 1 5 6 2 11 -3 6 -2 10 4 10 14 0 9 196 -6 211 -19 19
-40 19 -55 2z"/>
<path d="M4482 4820 c-15 -15 -54 -58 -87 -96 -33 -37 -82 -92 -108 -122 -30
-33 -46 -60 -43 -69 3 -8 6 -18 6 -23 0 -12 31 -21 52 -15 10 4 16 10 13 14
-2 4 7 14 20 21 14 7 25 16 25 19 0 4 14 22 32 41 96 105 178 204 178 214 -1
19 -24 43 -43 43 -11 0 -31 -12 -45 -27z"/>
<path d="M3188 4709 c-22 -12 -23 -35 -2 -56 12 -12 20 -13 40 -5 29 14 32 47
5 62 -23 12 -22 12 -43 -1z"/>
<path d="M535 4630 c-39 -44 -4 -65 109 -66 110 -1 136 8 130 44 -3 15 -8 29
-10 32 -3 3 -53 5 -110 6 -84 0 -107 -3 -119 -16z"/>
<path d="M870 4633 c-21 -15 -27 -43 -10 -43 6 0 10 -6 10 -13 0 -10 24 -13
102 -13 85 0 105 3 120 18 22 22 23 32 1 49 -23 20 -196 21 -223 2z"/>
<path d="M789 4556 c-12 -9 -15 -31 -14 -106 2 -123 3 -132 15 -125 6 3 10 1
10 -4 0 -17 18 -13 39 8 16 16 19 32 17 120 -1 55 -5 103 -8 106 -11 12 -44
13 -59 1z"/>
<path d="M3722 4547 c-10 -12 -65 -118 -67 -127 0 -3 -8 -19 -17 -36 -15 -27
-15 -34 -3 -50 22 -30 45 -8 97 96 33 64 45 98 39 108 -11 19 -37 24 -49 9z"/>
<path d="M4108 4399 c-28 -30 -90 -100 -139 -156 -76 -88 -87 -106 -80 -125 5
-14 18 -24 33 -26 24 -3 40 13 173 163 128 145 132 153 87 183 -22 15 -25 13
-74 -39z"/>
<path d="M2392 4407 c-11 -13 -6 -57 7 -70 5 -5 18 -6 30 -2 15 4 21 15 21 35
0 38 -38 62 -58 37z"/>
<path d="M1895 4383 c-8 -8 -15 -18 -15 -22 0 -17 167 -242 190 -256 19 -12
50 6 50 29 0 26 -167 252 -193 259 -9 3 -24 -1 -32 -10z"/>
<path d="M2926 4335 c-45 -16 -99 -65 -120 -109 -13 -28 -36 -82 -41 -96 -1
-3 -6 -14 -10 -25 -52 -121 -197 -473 -199 -483 -5 -24 -22 -31 -101 -36 -175
-13 -233 -17 -300 -21 -64 -3 -152 -9 -296 -20 -31 -2 -69 -10 -85 -17 -137
-61 -169 -251 -61 -353 12 -11 108 -92 212 -179 105 -87 212 -177 239 -200 26
-22 52 -40 57 -39 5 2 8 0 7 -5 0 -4 2 -14 6 -23 6 -13 -95 -431 -143 -598 -6
-18 -10 -36 -9 -40 1 -3 -2 -13 -5 -21 -47 -113 51 -257 185 -273 37 -4 109
13 153 37 17 9 34 16 38 16 7 0 288 169 407 245 19 12 58 36 85 52 l50 30 235
-148 c401 -252 406 -255 481 -244 131 20 216 143 186 270 -4 17 -9 39 -12 50
-9 41 -44 184 -70 285 -15 58 -28 112 -30 120 -11 51 -19 76 -26 86 -4 5 -10
30 -11 53 l-3 44 255 209 c140 115 267 220 282 233 43 41 84 189 59 219 -6 7
-8 16 -5 19 17 17 -66 112 -116 134 -43 18 -52 20 -170 28 -52 4 -117 8 -145
10 -27 2 -84 7 -125 10 -41 2 -106 7 -145 10 -38 3 -91 7 -116 9 -26 2 -51 6
-55 9 -5 3 -20 35 -34 71 -13 36 -28 66 -32 66 -12 0 -58 108 -56 133 1 24
-99 281 -150 385 -45 92 -161 135 -266 97z"/>
<path d="M1210 4270 c-11 -11 -20 -24 -20 -30 0 -13 37 -50 50 -50 13 0 50 37
50 50 0 6 -9 19 -20 30 -11 11 -24 20 -30 20 -5 0 -19 -9 -30 -20z"/>
<path d="M4749 4266 c-28 -15 -112 -68 -119 -76 -3 -4 -21 -16 -40 -28 -39
-23 -49 -57 -21 -71 13 -8 31 -1 74 30 32 21 59 39 62 39 3 0 24 14 48 31 61
44 58 108 -4 75z"/>
<path d="M2433 4248 c-11 -13 -5 -44 48 -240 21 -78 44 -103 69 -72 13 15 5
62 -39 219 -22 81 -31 101 -48 103 -11 2 -25 -3 -30 -10z"/>
<path d="M3539 4188 c-20 -40 -36 -76 -35 -79 0 -4 -8 -16 -18 -28 -11 -12
-16 -21 -13 -21 4 0 -2 -15 -13 -32 -25 -41 -25 -64 -1 -77 14 -8 22 -6 33 7
18 20 138 264 138 279 0 11 -23 23 -44 23 -6 0 -28 -33 -47 -72z"/>
<path d="M5423 4170 c-23 -9 -45 -42 -50 -75 -8 -49 50 -99 103 -89 33 6 66
32 58 45 -3 5 0 9 5 9 29 0 -12 109 -41 111 -7 0 -22 2 -33 4 -11 2 -30 -1
-42 -5z"/>
<path d="M1511 4062 c-5 -10 -7 -22 -3 -28 8 -11 55 -42 62 -40 3 1 15 -8 27
-19 12 -11 47 -35 78 -54 51 -31 58 -33 72 -18 9 8 13 23 10 31 -8 20 -199
146 -221 146 -8 0 -20 -8 -25 -18z"/>
<path d="M4338 3997 c-126 -82 -150 -109 -123 -136 12 -12 23 -8 82 28 37 23
88 57 113 76 25 18 50 34 57 34 13 1 33 32 33 50 0 6 -8 15 -18 20 -14 8 -43
-7 -144 -72z"/>
<path d="M2152 4033 c-5 -10 -7 -25 -3 -33 6 -15 59 -88 71 -100 3 -3 17 -21
30 -40 13 -19 27 -37 30 -40 3 -3 19 -23 35 -45 17 -22 34 -43 38 -46 18 -13
50 -3 57 17 7 17 -13 47 -99 160 -108 141 -139 166 -159 127z"/>
<path d="M3778 4027 c-7 -8 -42 -47 -78 -87 -36 -41 -74 -83 -85 -96 -98 -108
-102 -117 -74 -143 12 -11 28 -17 38 -13 22 8 110 105 104 115 -2 4 0 6 4 5 5
-2 28 18 50 44 23 26 55 62 72 80 41 43 50 77 26 95 -24 17 -40 17 -57 0z"/>
<path d="M1815 3859 c-5 -15 -2 -25 8 -31 9 -5 23 -15 31 -23 8 -8 17 -15 20
-15 3 0 36 -21 73 -46 102 -70 134 -85 150 -72 29 23 13 47 -64 94 -43 27 -80
51 -83 54 -17 18 -93 60 -109 60 -11 0 -23 -9 -26 -21z"/>
<path d="M3977 3754 c-129 -86 -144 -103 -105 -128 14 -8 41 6 147 77 129 87
155 116 115 131 -25 9 -22 11 -157 -80z"/>
<path d="M1043 3540 c-87 -35 -50 -164 44 -154 68 7 75 10 88 33 18 34 7 62
-37 99 -42 33 -58 37 -95 22z"/>
<path d="M5009 3383 c-124 -52 -155 -209 -60 -304 57 -58 148 -72 220 -35 34
18 91 81 91 101 0 8 4 15 8 15 12 0 5 86 -9 112 -14 26 -39 53 -39 42 0 -4 -8
0 -18 9 -10 10 -21 15 -24 12 -3 -4 -10 8 -16 24 -6 17 -17 32 -24 32 -62 7
-100 4 -129 -8z"/>
<path d="M4566 3051 c-12 -13 -15 -27 -10 -45 6 -24 13 -28 49 -28 29 0 33 2
39 28 8 30 -16 64 -44 64 -9 0 -25 -8 -34 -19z"/>
<path d="M1820 2906 c-3 -2 -30 -7 -60 -10 -30 -4 -68 -10 -85 -13 -32 -7 -45
-9 -86 -11 -31 -2 -45 -35 -24 -56 10 -10 28 -11 72 -5 32 5 78 11 103 14 118
13 130 16 149 34 21 19 2 45 -35 49 -17 2 -32 1 -34 -2z"/>
<path d="M570 2871 c-13 -25 -9 -69 7 -82 22 -19 53 8 53 44 0 53 -39 77 -60
38z"/>
<path d="M1377 2843 c-15 -2 -32 -14 -38 -25 -17 -31 10 -47 64 -41 59 8 79
20 75 46 -2 18 -10 22 -38 23 -19 1 -47 -1 -63 -3z"/>
<path d="M4055 2794 c-15 -15 -18 -49 -4 -42 3 2 12 -2 20 -9 13 -10 60 -22
119 -28 14 -2 36 -7 50 -13 32 -12 70 2 70 26 0 26 -82 54 -193 66 -12 1 -28
5 -34 9 -6 4 -19 0 -28 -9z"/>
<path d="M450 2765 c-20 -24 5 -55 44 -55 41 0 65 24 49 48 -13 21 -78 25 -93
7z"/>
<path d="M644 2766 c-28 -21 -7 -50 39 -54 28 -3 38 1 48 19 10 19 9 25 -7 36
-23 17 -55 17 -80 -1z"/>
<path d="M571 2696 c-16 -19 -9 -77 11 -89 24 -16 48 8 48 47 0 49 -34 73 -59
42z"/>
<path d="M1985 2656 c-38 -18 -97 -45 -130 -61 -33 -16 -63 -33 -67 -39 -13
-18 -9 -35 10 -45 12 -6 35 0 84 24 37 18 70 30 73 27 3 -3 5 -1 5 4 0 5 22
18 49 29 72 27 95 47 86 73 -9 29 -27 27 -110 -12z"/>
<path d="M3921 2627 c-26 -26 -11 -46 57 -78 37 -17 73 -32 80 -32 6 0 12 -4
12 -9 0 -4 7 -8 15 -8 9 0 34 -9 56 -21 52 -26 84 -22 84 11 0 21 -13 30 -110
73 -157 70 -180 78 -194 64z"/>
<path d="M1642 2494 c-12 -8 -22 -13 -22 -10 0 3 -49 -20 -110 -49 -110 -55
-115 -59 -104 -89 9 -23 27 -20 102 16 37 17 69 32 72 33 33 7 131 63 136 77
12 39 -32 52 -74 22z"/>
<path d="M4301 2452 c-4 -9 -6 -23 -4 -30 4 -11 118 -69 148 -76 6 -1 31 -12
58 -24 26 -13 61 -25 77 -29 28 -5 30 -4 30 25 0 28 -5 32 -87 67 -49 20 -108
46 -132 57 -61 27 -80 29 -90 10z"/>
<path d="M1954 2327 c-6 -7 -23 -21 -38 -32 -16 -11 -45 -33 -65 -50 -21 -16
-55 -43 -76 -60 -22 -16 -57 -46 -79 -66 -39 -36 -40 -37 -23 -62 11 -17 24
-25 37 -22 18 3 126 82 168 122 7 6 44 35 82 64 57 42 70 57 70 79 0 38 -50
56 -76 27z"/>
<path d="M3967 2323 c-12 -11 -8 -51 7 -65 15 -14 21 -19 101 -83 28 -22 52
-43 55 -47 3 -3 34 -29 69 -57 66 -53 95 -60 114 -30 16 26 -10 58 -120 147
-54 44 -114 93 -133 111 -32 28 -77 40 -93 24z"/>
<path d="M768 2084 c-15 -16 -15 -18 5 -34 21 -17 22 -17 35 1 11 16 11 23 2
34 -16 19 -22 19 -42 -1z"/>
<path d="M1455 1933 c-55 -42 -109 -85 -119 -95 -11 -10 -35 -28 -53 -41 -42
-28 -54 -65 -27 -84 10 -8 27 -12 36 -10 27 7 307 230 314 250 6 19 -20 57
-40 57 -6 0 -56 -35 -111 -77z"/>
<path d="M2948 1978 c-9 -23 2 -312 11 -321 5 -5 20 -7 34 -3 l24 6 -3 151
c-2 83 -5 158 -8 165 -7 17 -52 18 -58 2z"/>
<path d="M4385 1973 c-16 -36 -12 -43 38 -87 106 -91 202 -166 212 -166 6 0
19 6 29 13 20 15 18 64 -2 59 -8 -1 -11 2 -8 7 3 5 -5 16 -18 24 -13 9 -29 22
-37 29 -59 55 -171 138 -187 138 -11 0 -23 -8 -27 -17z"/>
<path d="M3184 1903 c-16 -17 -17 -25 -5 -38 4 -6 23 -46 41 -90 17 -44 36
-84 41 -90 5 -5 9 -15 9 -23 0 -8 9 -27 21 -43 17 -25 23 -27 41 -18 25 13 21
40 -20 130 -16 35 -41 91 -56 125 -28 62 -45 73 -72 47z"/>
<path d="M2731 1886 c-7 -8 -21 -45 -32 -83 -57 -191 -62 -214 -51 -225 13
-13 58 -3 60 14 4 31 10 55 20 79 6 15 16 46 22 70 10 38 39 122 43 125 1 0
-4 8 -12 17 -17 21 -35 22 -50 3z"/>
<path d="M5369 1708 c0 -2 -2 -29 -3 -60 -2 -42 0 -58 10 -58 7 0 20 -10 28
-21 19 -28 98 -35 122 -12 22 23 3 31 -66 28 l-57 -3 2 64 c2 57 0 64 -16 64
-11 0 -19 -1 -20 -2z"/>
<path d="M5246 1578 c3 -5 0 -8 -7 -8 -8 0 -9 -4 0 -13 6 -9 31 -13 65 -12 61
1 76 9 57 28 -13 13 -123 18 -115 5z"/>
<path d="M2957 1548 c-7 -34 -2 -171 6 -186 5 -6 5 -12 0 -12 -4 0 -1 -5 9
-10 19 -11 47 -3 49 14 3 32 -2 183 -7 198 -8 27 -51 23 -57 -4z"/>
<path d="M5380 1530 c-9 -6 -14 -28 -15 -64 -1 -30 2 -53 7 -50 4 3 8 0 8 -7
0 -10 3 -10 12 -1 14 14 21 119 9 126 -4 3 -13 1 -21 -4z"/>
<path d="M3346 1515 c-3 -9 4 -40 17 -70 19 -48 26 -55 50 -55 34 0 35 22 6
91 -17 38 -26 49 -44 49 -13 0 -25 -7 -29 -15z"/>
<path d="M4197 1252 c-22 -24 -21 -45 1 -65 24 -22 45 -21 65 1 22 24 21 45
-1 65 -24 22 -45 21 -65 -1z"/>
<path d="M1905 960 c-4 -6 -11 -8 -16 -5 -5 4 -12 -1 -15 -9 -3 -9 -13 -16
-21 -16 -8 0 -11 -5 -8 -10 3 -6 0 -13 -8 -16 -7 -2 -14 -10 -15 -17 -5 -41
-4 -55 3 -85 4 -19 15 -36 24 -40 9 -3 22 -12 29 -19 12 -12 53 -19 77 -13 6
1 16 3 23 3 6 0 12 4 12 8 0 4 9 11 20 14 11 4 18 11 15 16 -4 5 -2 9 2 9 5 0
14 14 20 30 12 32 0 100 -17 100 -6 0 -10 7 -10 16 0 8 -5 12 -10 9 -6 -3 -13
0 -16 8 -2 7 -10 14 -17 15 -7 0 -24 3 -39 6 -15 4 -30 2 -33 -4z"/>
</g>
</svg>
